<svg width="22" height="22" viewBox="0 0 22 22" fill="none" xmlns="http://www.w3.org/2000/svg">
<path opacity="0.4" d="M20.3703 8.71847H18.3903C18.2477 8.25809 18.0644 7.80995 17.8403 7.38624L19.2377 5.98883C19.3967 5.82995 19.3967 5.56921 19.2377 5.41031L16.5896 2.76217C16.4306 2.60328 16.1699 2.60328 16.011 2.76217L14.6136 4.15957C14.1899 3.9355 13.7418 3.75217 13.2814 3.60957V1.62957C13.2814 1.4055 13.0981 1.22217 12.874 1.22217H9.12588C8.90179 1.22217 8.71846 1.4055 8.71846 1.62957V3.60957C8.2581 3.75217 7.80995 3.9355 7.38624 4.15957L5.98884 2.76217C5.82995 2.60328 5.5692 2.60328 5.41032 2.76217L2.76217 5.41031C2.60327 5.56921 2.60327 5.82995 2.76217 5.98883L4.15958 7.38624C3.9355 7.80995 3.75217 8.25809 3.60958 8.71847H1.62958C1.4055 8.71847 1.22217 8.9018 1.22217 9.12587V12.874C1.22217 13.0981 1.4055 13.2814 1.62958 13.2814H3.60958C3.75217 13.7418 3.9355 14.1899 4.15958 14.6137L2.76217 16.0111C2.60327 16.1699 2.60327 16.4307 2.76217 16.5896L5.41032 19.2377C5.5692 19.3966 5.82995 19.3966 5.98884 19.2377L7.38624 17.8403C7.80995 18.0644 8.2581 18.2477 8.71846 18.3903V20.3703C8.71846 20.5944 8.90179 20.7777 9.12588 20.7777H12.874C13.0981 20.7777 13.2814 20.5944 13.2814 20.3703V18.3903C13.7418 18.2477 14.1899 18.0644 14.6136 17.8403L16.011 19.2377C16.1699 19.3966 16.4306 19.3966 16.5896 19.2377L19.2377 16.5896C19.3967 16.4307 19.3967 16.1699 19.2377 16.0111L17.8403 14.6137C18.0644 14.1899 18.2477 13.7418 18.3903 13.2814H20.3703C20.5944 13.2814 20.7777 13.0981 20.7777 12.874V9.12587C20.7777 8.9018 20.5944 8.71847 20.3703 8.71847ZM10.9999 15.9907C8.10736 15.9907 5.75253 13.6359 5.75253 10.7473C5.75253 7.85476 8.10736 5.49995 10.9999 5.49995C13.8925 5.49995 16.2474 7.85476 16.2474 10.7473C16.2474 13.6359 13.8925 15.9907 10.9999 15.9907Z" fill="#222222"/>
<path d="M13.915 13.4861C13.189 14.2708 12.1513 14.7584 11 14.7584C9.84863 14.7584 8.81096 14.2708 8.08496 13.4861C8.64596 12.4191 9.75696 11.7334 11 11.7334C11.88 11.7334 12.7086 12.0744 13.332 12.6977C13.3356 12.6977 13.3356 12.6977 13.3356 12.7014C13.5666 12.9361 13.7647 13.2001 13.915 13.4861Z" fill="#222222"/>
<path d="M11 11.3666C12.0125 11.3666 12.8333 10.5458 12.8333 9.53328C12.8333 8.52076 12.0125 7.69995 11 7.69995C9.98743 7.69995 9.16663 8.52076 9.16663 9.53328C9.16663 10.5458 9.98743 11.3666 11 11.3666Z" fill="#222222"/>
</svg>
