<svg width="18" height="19" viewBox="0 0 18 19" fill="none" xmlns="http://www.w3.org/2000/svg">
<g clip-path="url(#clip0_189_776)">
<path fill-rule="evenodd" clip-rule="evenodd" d="M16.23 12.76L13.69 12.47C13.08 12.4 12.48 12.61 12.05 13.04L10.21 14.88C7.38004 13.44 5.06004 11.13 3.62004 8.29001L5.47004 6.44001C5.90004 6.01001 6.11004 5.41001 6.04004 4.80001L5.75004 2.28001C5.63004 1.27001 4.78004 0.51001 3.76004 0.51001H2.03004C0.900041 0.51001 -0.0399593 1.45001 0.0300407 2.58001C0.560041 11.12 7.39004 17.94 15.92 18.47C17.05 18.54 17.99 17.6 17.99 16.47V14.74C18 13.73 17.24 12.88 16.23 12.76Z" fill="#4D4D4D"/>
</g>
<defs>
<clipPath id="clip0_189_776">
<rect width="18" height="18" fill="white" transform="translate(0 0.5)"/>
</clipPath>
</defs>
</svg>
