<svg width="29" height="28" viewBox="0 0 29 28" fill="none" xmlns="http://www.w3.org/2000/svg">
<path d="M10.5 2.80005C11.825 2.80005 12.9 3.84469 12.9 5.13338V12.9112C12.9 14.1994 11.825 15.2445 10.5 15.2445H5.69999C4.37449 15.2445 3.29999 14.1994 3.29999 12.9112V5.13338C3.29999 3.84469 4.37449 2.80005 5.69999 2.80005H10.5ZM10.5 18.3556C11.825 18.3556 12.9 19.4007 12.9 20.6889V22.2445C12.9 23.5326 11.825 24.5777 10.5 24.5777H5.69999C4.37449 24.5777 3.29999 23.5326 3.29999 22.2445V20.6889C3.29999 19.4007 4.37449 18.3556 5.69999 18.3556H10.5Z" fill="#4E97FD"/>
<path d="M23.3 2.80005C24.625 2.80005 25.7 3.84469 25.7 5.13338V6.68893C25.7 7.97713 24.625 9.02226 23.3 9.02226H18.5C17.175 9.02226 16.1 7.97713 16.1 6.68893V5.13338C16.1 3.84469 17.175 2.80005 18.5 2.80005H23.3ZM23.3 12.1334C24.625 12.1334 25.7 13.1785 25.7 14.4667V22.2445C25.7 23.5326 24.625 24.5777 23.3 24.5777H18.5C17.175 24.5777 16.1 23.5326 16.1 22.2445V14.4667C16.1 13.1785 17.175 12.1334 18.5 12.1334H23.3Z" fill="#DAE1E7"/>
</svg>
