<svg width="20" height="21" viewBox="0 0 20 21" fill="none" xmlns="http://www.w3.org/2000/svg">
<path d="M4.16667 4.66667H9.16667C9.625 4.66667 10 4.29167 10 3.83333C10 3.375 9.625 3 9.16667 3H4.16667C3.25 3 2.5 3.75 2.5 4.66667V16.3333C2.5 17.25 3.25 18 4.16667 18H9.16667C9.625 18 10 17.625 10 17.1667C10 16.7083 9.625 16.3333 9.16667 16.3333H4.16667V4.66667Z" fill="black"/>
<path d="M17.2083 10.2084L14.8833 7.88337C14.8254 7.82383 14.751 7.78293 14.6696 7.76592C14.5883 7.74891 14.5037 7.75656 14.4268 7.78788C14.3498 7.8192 14.284 7.87277 14.2376 7.94174C14.1913 8.01071 14.1666 8.09194 14.1667 8.17503V9.6667H8.33333C7.875 9.6667 7.5 10.0417 7.5 10.5C7.5 10.9584 7.875 11.3334 8.33333 11.3334H14.1667V12.825C14.1667 13.2 14.6167 13.3834 14.875 13.1167L17.2 10.7917C17.3667 10.6334 17.3667 10.3667 17.2083 10.2084Z" fill="black"/>
</svg>
