<svg width="25" height="24" viewBox="0 0 25 24" fill="none" xmlns="http://www.w3.org/2000/svg">
<mask id="mask0_42_224" style="mask-type:luminance" maskUnits="userSpaceOnUse" x="0" y="0" width="25" height="24">
<path d="M24.5 0H0.5V24H24.5V0Z" fill="white"/>
</mask>
<g mask="url(#mask0_42_224)">
<path opacity="0.4" d="M17.375 6.75H7.625C7.00625 6.75 6.5 7.25625 6.5 7.875C6.5 8.49375 7.00625 9 7.625 9H17.375C17.9984 9 18.5 8.49845 18.5 7.875C18.5 7.25155 17.9984 6.75 17.375 6.75ZM12.875 11.25H7.625C7.00625 11.25 6.5 11.7562 6.5 12.375C6.5 12.9938 7.00625 13.5 7.625 13.5H12.875C13.4984 13.5 14 12.9984 14 12.375C14 11.7516 13.4984 11.25 12.875 11.25Z" fill="#DAE1E7"/>
<path d="M21.4578 0H3.45776C1.80542 0 0.457764 1.34766 0.457764 2.95782V16.4157C0.457764 18.0679 1.80542 19.3734 3.45776 19.3734H7.95776V23.2687C7.95776 23.7258 8.48511 23.993 8.85401 23.7234L14.7087 19.3312H21.4587C23.1111 19.3312 24.4587 17.9837 24.4587 16.3734V2.95782C24.4578 1.34766 23.15 0 21.4578 0ZM12.875 13.5H7.62495C7.0062 13.5 6.49995 12.9984 6.49995 12.375C6.49995 11.7516 7.0062 11.25 7.62495 11.25H12.875C13.4984 11.25 14 11.7563 14 12.375C14 12.9937 13.4984 13.5 12.875 13.5ZM17.375 9H7.62495C7.0062 9 6.49995 8.49844 6.49995 7.875C6.49995 7.25157 7.0062 6.75 7.62495 6.75H17.375C17.9984 6.75 18.5 7.25625 18.5 7.875C18.5 8.49375 17.9984 9 17.375 9Z" fill="#DAE1E7"/>
</g>
</svg>
