<svg width="22" height="22" viewBox="0 0 22 22" fill="none" xmlns="http://www.w3.org/2000/svg">
<path opacity="0.4" d="M13.4443 3.66661C13.4443 2.31644 12.35 1.22217 10.9999 1.22217C9.64968 1.22217 8.55541 2.31644 8.55541 3.66661C7.20523 3.66661 6.11096 4.76089 6.11096 6.11105V6.72217C6.11096 7.05828 6.38444 7.33328 6.72207 7.33328H15.2776C15.6138 7.33328 15.8888 7.05828 15.8888 6.72217V6.11105C15.8888 4.76089 14.7925 3.66661 13.4443 3.66661ZM10.9999 4.58328C10.4919 4.58328 10.0832 4.17269 10.0832 3.66661C10.0832 3.16015 10.4938 2.74995 10.9999 2.74995C11.5059 2.74995 11.9165 3.16015 11.9165 3.66661C11.9165 4.17269 11.5078 4.58328 10.9999 4.58328ZM7.33319 14.3611C6.8271 14.3611 6.41651 14.7717 6.41651 15.2777C6.41651 15.7838 6.8271 16.1944 7.33319 16.1944C7.83925 16.1944 8.24986 15.7838 8.24986 15.2777C8.24986 14.7717 7.84117 14.3611 7.33319 14.3611ZM7.33319 10.6944C6.8271 10.6944 6.41651 11.105 6.41651 11.6111C6.41651 12.1171 6.8271 12.5277 7.33319 12.5277C7.83925 12.5277 8.24986 12.119 8.24986 11.6111C8.24986 11.1031 7.84117 10.6944 7.33319 10.6944Z" fill="#222222"/>
<path d="M16.5 3.66675H13.4444C14.7945 3.66675 15.8889 4.76101 15.8889 6.11118V6.7223C15.8889 7.05841 15.6139 7.33341 15.2777 7.33341H6.72218C6.38453 7.33341 6.11106 7.05841 6.11106 6.7223V6.11118C6.11106 4.76101 7.20534 3.66675 8.55551 3.66675H5.49995C4.48742 3.66675 3.66663 4.48754 3.66663 5.50008V18.9445C3.66663 19.9567 4.48742 20.7778 5.49995 20.7778H16.5C17.5125 20.7778 18.3332 19.9571 18.3332 18.9445V5.50008C18.3332 4.48754 17.5121 3.66675 16.5 3.66675ZM7.33328 16.1945C6.82721 16.1945 6.41663 15.7839 6.41663 15.2778C6.41663 14.7718 6.82721 14.3612 7.33328 14.3612C7.83937 14.3612 8.24995 14.7718 8.24995 15.2778C8.24995 15.7839 7.84128 16.1945 7.33328 16.1945ZM7.33328 12.5279C6.82721 12.5279 6.41663 12.1173 6.41663 11.6112C6.41663 11.1051 6.82721 10.6945 7.33328 10.6945C7.83937 10.6945 8.24995 11.107 8.24995 11.6112C8.24995 12.1154 7.84128 12.5279 7.33328 12.5279ZM15.2777 15.889H10.3889C10.0527 15.889 9.77773 15.614 9.77773 15.2778C9.77773 14.9418 10.0527 14.6668 10.3889 14.6668H15.2777C15.6139 14.6668 15.8889 14.9418 15.8889 15.2778C15.8889 15.614 15.6139 15.889 15.2777 15.889ZM15.2777 12.2223H10.3889C10.0527 12.2223 9.77773 11.9473 9.77773 11.6112C9.77773 11.2751 10.0527 11.0001 10.3889 11.0001H15.2777C15.6139 11.0001 15.8889 11.2751 15.8889 11.6112C15.8889 11.9473 15.6139 12.2223 15.2777 12.2223Z" fill="#222222"/>
</svg>
