<svg width="33" height="32" viewBox="0 0 33 32" fill="none" xmlns="http://www.w3.org/2000/svg">
<path d="M16.5 2.66675C9.13599 2.66675 3.16666 8.63608 3.16666 16.0001C3.16666 23.3641 9.13599 29.3334 16.5 29.3334C23.864 29.3334 29.8333 23.3641 29.8333 16.0001C29.8333 8.63608 23.864 2.66675 16.5 2.66675Z" stroke="white" stroke-opacity="0.7" stroke-width="2" stroke-linecap="round" stroke-linejoin="round"/>
<path d="M6.19464 24.4613C6.19464 24.4613 9.16664 20.6667 16.5 20.6667C23.8333 20.6667 26.8066 24.4613 26.8066 24.4613M16.5 16C17.5608 16 18.5783 15.5786 19.3284 14.8284C20.0785 14.0783 20.5 13.0609 20.5 12C20.5 10.9391 20.0785 9.92172 19.3284 9.17157C18.5783 8.42143 17.5608 8 16.5 8C15.4391 8 14.4217 8.42143 13.6715 9.17157C12.9214 9.92172 12.5 10.9391 12.5 12C12.5 13.0609 12.9214 14.0783 13.6715 14.8284C14.4217 15.5786 15.4391 16 16.5 16Z" stroke="white" stroke-opacity="0.7" stroke-width="2" stroke-linecap="round" stroke-linejoin="round"/>
</svg>
