<svg width="20" height="20" viewBox="0 0 20 20" fill="none" xmlns="http://www.w3.org/2000/svg">
<g clip-path="url(#clip0_42_739)">
<path d="M12.9 14.32C11.2927 15.5685 9.26997 16.1576 7.24363 15.9671C5.2173 15.7766 3.33973 14.821 1.99325 13.2948C0.646757 11.7686 -0.0674123 9.78661 -0.00384476 7.75234C0.0597228 5.71806 0.896247 3.7845 2.3354 2.34535C3.77455 0.906196 5.70811 0.0696715 7.74239 0.00610398C9.77666 -0.0574636 11.7587 0.656705 13.2849 2.00319C14.8111 3.34968 15.7667 5.22725 15.9571 7.25358C16.1476 9.27992 15.5586 11.3027 14.31 12.91L19.66 18.24L18.24 19.66L12.91 14.32H12.9ZM8 14C8.78794 14 9.56815 13.8448 10.2961 13.5432C11.0241 13.2417 11.6855 12.7997 12.2426 12.2426C12.7998 11.6854 13.2418 11.024 13.5433 10.2961C13.8448 9.5681 14 8.78788 14 7.99995C14 7.21202 13.8448 6.43181 13.5433 5.70385C13.2418 4.9759 12.7998 4.31446 12.2426 3.75731C11.6855 3.20016 11.0241 2.7582 10.2961 2.45667C9.56815 2.15515 8.78794 1.99995 8 1.99995C6.4087 1.99995 4.88258 2.63209 3.75736 3.75731C2.63214 4.88253 2 6.40865 2 7.99995C2 9.59125 2.63214 11.1174 3.75736 12.2426C4.88258 13.3678 6.4087 14 8 14Z" fill="black"/>
</g>
<defs>
<clipPath id="clip0_42_739">
<rect width="20" height="20" fill="white"/>
</clipPath>
</defs>
</svg>
