<svg width="20" height="20" viewBox="0 0 20 20" fill="none" xmlns="http://www.w3.org/2000/svg">
<path d="M18.7606 8.40546L16.6575 7.88828C16.5312 7.48961 16.3685 7.10302 16.1723 6.73322C16.4881 6.20762 17.1517 5.10136 17.1517 5.10136C17.2786 4.88998 17.2451 4.6193 17.0708 4.44517L15.5517 2.92607C15.3777 2.7514 15.1075 2.71784 14.8956 2.84529L13.2611 3.82463C12.8933 3.63001 12.5089 3.46897 12.1129 3.3436L11.5957 1.24058C11.5358 1.00137 11.3213 0.833496 11.0748 0.833496H8.92621C8.67967 0.833496 8.4646 1.00137 8.40533 1.24054C8.40533 1.24054 8.04706 2.70835 7.88865 3.34306C7.46639 3.47681 7.0583 3.65046 6.6696 3.86237L4.97479 2.84529C4.76288 2.71938 4.49327 2.75194 4.3186 2.92607L2.7995 4.44517C2.62537 4.6193 2.59178 4.88998 2.71872 5.10136L3.76677 6.85178C3.59787 7.18488 3.45624 7.53157 3.34348 7.8867L1.24046 8.40546C1.00125 8.46527 0.833374 8.6798 0.833374 8.92635V11.0749C0.833374 11.3214 1.00125 11.5365 1.24042 11.5958L3.34399 12.113C3.47146 12.5174 3.63718 12.9103 3.83811 13.2875L2.90023 14.8506C2.77329 15.0619 2.80688 15.3326 2.98101 15.5067L4.50011 17.0258C4.67375 17.1995 4.94439 17.2325 5.15631 17.1067C5.15631 17.1067 6.20803 16.4761 6.72313 16.1677C7.09609 16.3665 7.48634 16.5307 7.88868 16.6581L8.40538 18.7606C8.4646 18.9999 8.67967 19.1678 8.92621 19.1678H11.0748C11.3213 19.1678 11.5358 18.9999 11.5956 18.7606L12.1123 16.6581C12.5262 16.527 12.9248 16.3576 13.304 16.152C13.8334 16.4693 14.8956 17.1067 14.8956 17.1067C15.1069 17.233 15.3777 17.2006 15.5517 17.0258L17.0708 15.5067C17.2449 15.3326 17.2786 15.0619 17.1516 14.8506L16.1859 13.2418C16.3763 12.8803 16.5342 12.5022 16.6575 12.113L18.7606 11.5958C18.9997 11.536 19.1676 11.3214 19.1676 11.0749V8.92635C19.1676 8.6798 18.9997 8.46527 18.7606 8.40546ZM10.0005 13.7606C7.92747 13.7606 6.24053 12.0736 6.24053 10.0006C6.24053 7.92759 7.92747 6.24067 10.0005 6.24067C12.0735 6.24067 13.7604 7.92759 13.7604 10.0006C13.7604 12.0736 12.0735 13.7606 10.0005 13.7606Z" fill="#222222"/>
</svg>
