<svg width="22" height="22" viewBox="0 0 22 22" fill="none" xmlns="http://www.w3.org/2000/svg">
<g clip-path="url(#clip0_42_2620)">
<path opacity="0.4" d="M9.9733 21.2666C7.52269 21.2666 5.17246 20.2931 3.43961 18.5603C1.70677 16.8274 0.733276 14.4773 0.733276 12.0266C0.733276 9.57604 1.70677 7.22579 3.43961 5.49296C5.17246 3.76012 7.52269 2.78662 9.9733 2.78662C10.1081 2.78655 10.2417 2.81305 10.3663 2.86461C10.4909 2.91619 10.6041 2.9918 10.6994 3.08715C10.7948 3.18251 10.8704 3.29571 10.922 3.42032C10.9735 3.54491 11 3.67845 11 3.81329V11H18.1867C18.3216 10.9999 18.4551 11.0264 18.5796 11.078C18.7042 11.1295 18.8174 11.2052 18.9128 11.3005C19.0081 11.3959 19.0837 11.5091 19.1353 11.6337C19.1868 11.7583 19.2134 11.8918 19.2132 12.0266C19.2106 14.4764 18.2363 16.8251 16.5041 18.5573C14.7717 20.2897 12.4231 21.264 9.9733 21.2666Z" fill="#222222"/>
<path d="M20.24 8.94675H14.08C13.9451 8.94682 13.8116 8.92032 13.687 8.86876C13.5624 8.81718 13.4492 8.74157 13.3539 8.64621C13.2585 8.55086 13.1829 8.43765 13.1313 8.31305C13.0798 8.18846 13.0533 8.05492 13.0533 7.92008V1.76007C13.0533 1.62522 13.0798 1.49168 13.1313 1.36709C13.1829 1.24249 13.2585 1.12928 13.3539 1.03393C13.4492 0.938581 13.5624 0.86296 13.687 0.811392C13.8116 0.759825 13.9451 0.733322 14.08 0.733399C15.9859 0.733889 17.8136 1.49121 19.1612 2.83887C20.5088 4.18652 21.2662 6.0142 21.2667 7.92008C21.2667 8.05492 21.2402 8.18846 21.1886 8.31305C21.1371 8.43765 21.0615 8.55086 20.9662 8.64621C20.8707 8.74157 20.7576 8.81718 20.633 8.86876C20.5084 8.92032 20.3749 8.94682 20.24 8.94675Z" fill="#222222"/>
</g>
<defs>
<clipPath id="clip0_42_2620">
<rect width="22" height="22" fill="white"/>
</clipPath>
</defs>
</svg>
