<svg width="22" height="22" viewBox="0 0 22 22" fill="none" xmlns="http://www.w3.org/2000/svg">
<path d="M9.80003 8.79614H19.5025C20.4498 8.79614 21.2122 9.55817 21.2122 10.5047V12.7469C21.2122 13.6935 20.4498 14.4555 19.5025 14.4555H9.80003C8.85285 14.4555 8.09033 13.6935 8.09033 12.7469V10.5047C8.09033 9.55817 8.85285 8.79614 9.80003 8.79614Z" fill="#222222"/>
<path d="M3.51064 14.4356C3.13878 14.4356 2.77056 14.3624 2.427 14.2201C2.08344 14.0779 1.77128 13.8695 1.50833 13.6067C1.24539 13.344 1.03681 13.032 0.894503 12.6887C0.752197 12.3453 0.678954 11.9773 0.678955 11.6057C0.678955 10.8552 0.977293 10.1354 1.50833 9.60471C2.03939 9.07402 2.75964 8.77588 3.51064 8.77588C3.88251 8.77588 4.25073 8.84907 4.59429 8.99129C4.93785 9.13349 5.25001 9.34194 5.51295 9.60471C5.77589 9.86749 5.98448 10.1795 6.12678 10.5228C6.26909 10.8661 6.34234 11.2341 6.34234 11.6057C6.34234 11.9773 6.26909 12.3453 6.12679 12.6887C5.98448 13.032 5.77591 13.344 5.51295 13.6067C5.25001 13.8695 4.93785 14.0779 4.59429 14.2201C4.25073 14.3624 3.88251 14.4356 3.51064 14.4356Z" fill="#222222"/>
<path opacity="0.4" d="M9.80003 16.2285H19.5025C20.4498 16.2285 21.2122 16.9905 21.2122 17.9371V20.1793C21.2122 21.1259 20.4498 21.8879 19.5025 21.8879H9.80003C8.85285 21.8879 8.09033 21.1259 8.09033 20.1793V17.9371C8.09033 16.9905 8.85285 16.2285 9.80003 16.2285Z" fill="#222222"/>
<path opacity="0.4" d="M3.51064 21.868C2.75964 21.868 2.03939 21.5699 1.50833 21.0392C0.977293 20.5084 0.678955 19.7886 0.678955 19.0381C0.678955 18.2877 0.977293 17.5679 1.50833 17.0371C2.03939 16.5065 2.75964 16.2083 3.51064 16.2083C3.88251 16.2083 4.25073 16.2815 4.59429 16.4237C4.93785 16.5659 5.25001 16.7743 5.51295 17.0371C5.77589 17.2999 5.98448 17.6119 6.12678 17.9552C6.26909 18.2985 6.34234 18.6665 6.34234 19.0381C6.34234 19.4098 6.26909 19.7778 6.12678 20.1211C5.98448 20.4644 5.77589 20.7764 5.51295 21.0392C5.25001 21.3019 4.93785 21.5104 4.59429 21.6526C4.25073 21.7949 3.88251 21.868 3.51064 21.868Z" fill="#222222"/>
<path d="M9.80003 1.37476H19.5025C20.4498 1.37476 21.2122 2.13678 21.2122 3.08335V5.32555C21.2122 6.27211 20.4498 7.03413 19.5025 7.03413H9.80003C8.85285 7.03413 8.09033 6.27211 8.09033 5.32555V3.08335C8.09033 2.13678 8.85285 1.37476 9.80003 1.37476Z" fill="#222222"/>
<path opacity="0.4" d="M3.51064 7.01419C2.75964 7.01419 2.03939 6.71605 1.50833 6.18535C0.977293 5.65464 0.678955 4.93487 0.678955 4.18434C0.678955 3.43383 0.977293 2.71404 1.50833 2.18333C2.03939 1.65264 2.75964 1.35449 3.51064 1.35449C3.88251 1.35449 4.25073 1.42769 4.59429 1.5699C4.93785 1.71212 5.25001 1.92056 5.51295 2.18333C5.77589 2.44611 5.98448 2.75807 6.12678 3.10141C6.26909 3.44474 6.34234 3.81272 6.34234 4.18434C6.34234 4.55596 6.26909 4.92394 6.12678 5.26728C5.98448 5.61062 5.77589 5.92258 5.51295 6.18535C5.25001 6.44813 4.93785 6.65658 4.59429 6.79878C4.25073 6.941 3.88251 7.01419 3.51064 7.01419Z" fill="#222222"/>
</svg>
