<svg width="29" height="28" viewBox="0 0 29 28" fill="none" xmlns="http://www.w3.org/2000/svg">
<path opacity="0.4" d="M14.5 15.7585C14.5 12.352 17.287 9.58813 20.7223 9.58813C24.1574 9.58813 26.9444 12.352 26.9444 15.7585C26.9444 19.1651 24.1574 21.9288 20.7223 21.9288C17.287 21.9288 14.5 19.1651 14.5 15.7585ZM23.6303 14.8715C23.9024 14.6059 23.9024 14.1688 23.6303 13.9031C23.3624 13.6332 22.9215 13.6332 22.6538 13.9031L20.0309 16.5041L18.7908 15.2743C18.5229 15.0044 18.0821 15.0044 17.8142 15.2743C17.542 15.54 17.542 15.9771 17.8142 16.2427L19.5426 17.9567C19.8106 18.2267 20.2512 18.2267 20.5191 17.9567L23.6303 14.8715Z" fill="#DAE1E7"/>
<path d="M4.24758 2.49789C4.59887 1.80114 5.31702 1.36108 6.10301 1.36108H11.0432V6.84585H2.05554L4.24758 2.49789ZM12.4259 6.84585V1.36108H17.3648C18.1512 1.36108 18.8685 1.80114 19.2229 2.49789L21.4135 6.84585H12.4259ZM20.0309 8.24704C16.1549 8.59413 13.1173 11.825 13.1173 15.7586C13.1173 17.5798 13.7697 19.2552 14.8543 20.5577H4.82098C3.29351 20.5577 2.05554 19.328 2.05554 17.8153V8.21704H20.0309V8.24704Z" fill="#DAE1E7"/>
</svg>
