<svg width="22" height="22" viewBox="0 0 22 22" fill="none" xmlns="http://www.w3.org/2000/svg">
<path d="M7.7 11C10.1303 11 12.1 9.02992 12.1 6.59995C12.1 4.16998 10.1303 2.19995 7.7 2.19995C5.26969 2.19995 3.3 4.16998 3.3 6.59995C3.3 9.02992 5.26969 11 7.7 11ZM9.44281 12.65H5.95719C2.66647 12.65 0 15.3174 0 18.6071C0 19.2671 0.5335 19.7999 1.19144 19.7999H14.2072C14.8672 19.7999 15.4 19.2671 15.4 18.6071C15.4 15.3174 12.7325 12.65 9.44281 12.65Z" fill="#222222"/>
<path opacity="0.4" d="M16.4612 13.2H13.919C15.5008 14.496 16.4921 16.4348 16.4921 18.6073C16.4921 19.0473 16.3614 19.4529 16.1478 19.8001H20.8985C21.5077 19.8001 22 19.3051 22 18.6691C22 15.6613 19.5352 13.2 16.4612 13.2ZM14.8398 11C16.9706 11 18.6953 9.27786 18.6953 7.15005C18.6953 5.02224 16.9706 3.30005 14.8398 3.30005C13.9753 3.30005 13.186 3.59413 12.543 4.07383C12.9396 4.8342 13.1874 5.68567 13.1874 6.60005C13.1874 7.82105 12.7768 8.94236 12.1 9.8557C12.7984 10.56 13.7658 11 14.8398 11Z" fill="#222222"/>
</svg>
