<svg width="20" height="23" viewBox="0 0 20 23" fill="none" xmlns="http://www.w3.org/2000/svg">
<path d="M18.7778 21.5C18.7778 19.9494 18.7778 19.1741 18.5864 18.5432C18.1555 17.1227 17.0439 16.0112 15.6235 15.5803C14.9926 15.3889 14.2173 15.3889 12.6667 15.3889H7.11112C5.56049 15.3889 4.78517 15.3889 4.15429 15.5803C2.73384 16.0112 1.62227 17.1227 1.19138 18.5432C1 19.1741 1 19.9494 1 21.5M14.8889 6.5C14.8889 9.26142 12.6503 11.5 9.88889 11.5C7.12747 11.5 4.88889 9.26142 4.88889 6.5C4.88889 3.73858 7.12747 1.5 9.88889 1.5C12.6503 1.5 14.8889 3.73858 14.8889 6.5Z" stroke="#4D4D4D" stroke-width="2" stroke-linecap="round" stroke-linejoin="round"/>
</svg>
